<svg version="1" xmlns="http://www.w3.org/2000/svg" width="492" height="492" viewBox="0 0 369.000000 369.000000"><path d="M161 1.5c-20.9 2.9-37.6 7.9-56.3 16.8-53.6 25.5-91.8 76-102.2 135.2-3 17.3-2.7 48.1.5 64.5.7 3 1.4 6.8 1.7 8.5 1.2 7.2 8.8 28 14.2 39 11.6 23.6 28.4 44.9 48.1 61.1 1.9 1.6 4 3.3 4.7 3.9 3 2.5 4.2 3.3 10.8 7.7 10.8 7.1 24.6 14.5 30.5 16.3 1.4.4 3 1.1 3.5 1.5 3.4 2.5 28.9 9.4 39.5 10.6 2.5.3 6.1.9 8.2 1.4 8.4 1.8 42.6.3 56.5-2.4 49-9.8 94.9-41.7 120.4-83.8 2.7-4.6 5.4-9 5.9-9.8 1.6-2.6 6.1-12.3 8.1-17.5 1.1-2.8 2.4-5.9 2.9-7 1.3-2.7 6-19.2 6.6-23.5.3-1.9.7-3.7.9-4 .2-.3.6-2.4.9-4.6.4-2.2.9-5.1 1.2-6.4 1-4.4 1.2-39.3.3-45.5-.5-3.3-1.1-7.4-1.4-9-3.2-22-14.1-50.2-26.7-69.5-29.1-44.6-72.1-73-125.6-82.6C202.7.3 173.4-.2 161 1.5z"/></svg>