<svg width="1280" height="720" viewBox="0 0 1280 720" fill="none" xmlns="http://www.w3.org/2000/svg">
<g clip-path="url(#clip0)">
<rect width="1280" height="720" rx="3" fill="url(#paint0_linear)"/>
<path d="M779.475 0.561458L918.591 126.42L300.484 322.882L300.207 322.97L300.146 323.254L205.765 763.632L205.703 763.918L205.923 764.112L549.422 1066.35L549.636 1066.53L549.907 1066.45L987.776 924.196L988.046 924.108L988.109 923.831L1074.43 545.159L1074.62 544.307L1073.79 544.571L690.912 665.869L547.604 540.033L1173.86 343.61L1279.45 437.168L1140 1078.65L500.547 1279.44L0.550995 838.72L140.001 197.239L779.475 0.561458Z" fill="white" stroke="white"/>
<g filter="url(#filter0_d)">
<path d="M199.318 314.824C201.75 314.824 203.734 314.472 205.27 313.768C206.87 313 208.086 312.008 208.918 310.792C209.814 309.512 210.422 308.072 210.742 306.472C211.062 304.808 211.222 303.112 211.222 301.384V299.656H223.894V301.384C223.894 309.384 221.782 315.56 217.558 319.912C213.398 324.2 207.318 326.344 199.318 326.344C191.638 326.344 185.558 324.008 181.078 319.336C176.598 314.664 174.358 307.848 174.358 298.888V283.912C174.358 279.624 174.934 275.784 176.086 272.392C177.238 268.936 178.902 266.056 181.078 263.752C183.254 261.384 185.878 259.592 188.95 258.376C192.022 257.096 195.478 256.456 199.318 256.456C203.286 256.456 206.806 257.032 209.878 258.184C212.95 259.336 215.51 261 217.558 263.176C219.67 265.352 221.238 267.976 222.262 271.048C223.35 274.12 223.894 277.576 223.894 281.416V283.144H211.222V281.416C211.222 279.816 211.03 278.216 210.646 276.616C210.262 275.016 209.622 273.576 208.726 272.296C207.83 271.016 206.614 269.992 205.078 269.224C203.542 268.392 201.622 267.976 199.318 267.976C197.206 267.976 195.382 268.392 193.846 269.224C192.31 269.992 191.03 271.08 190.006 272.488C188.982 273.832 188.214 275.432 187.702 277.288C187.254 279.08 187.03 280.968 187.03 282.952V299.848C187.03 302.024 187.254 304.04 187.702 305.896C188.15 307.688 188.854 309.256 189.814 310.6C190.774 311.944 192.022 313 193.558 313.768C195.158 314.472 197.078 314.824 199.318 314.824ZM235.731 313.48H252.435V269.32H236.307V257.8H264.531V313.48H280.083V325H235.731V313.48ZM341.457 301.768C341.457 305.736 340.785 309.256 339.441 312.328C338.097 315.336 336.273 317.896 333.969 320.008C331.665 322.056 329.009 323.624 326.001 324.712C323.057 325.8 319.953 326.344 316.689 326.344C313.425 326.344 310.289 325.8 307.281 324.712C304.337 323.624 301.713 322.056 299.409 320.008C297.105 317.896 295.281 315.336 293.937 312.328C292.593 309.256 291.921 305.736 291.921 301.768V300.616C291.921 296.712 292.593 293.256 293.937 290.248C295.281 287.176 297.105 284.584 299.409 282.472C301.713 280.36 304.337 278.76 307.281 277.672C310.289 276.584 313.425 276.04 316.689 276.04C319.953 276.04 323.057 276.584 326.001 277.672C329.009 278.76 331.665 280.36 333.969 282.472C336.273 284.584 338.097 287.176 339.441 290.248C340.785 293.256 341.457 296.712 341.457 300.616V301.768ZM316.689 314.824C318.417 314.824 320.049 314.536 321.585 313.96C323.121 313.384 324.465 312.552 325.617 311.464C326.769 310.376 327.665 309.064 328.305 307.528C329.009 305.928 329.361 304.136 329.361 302.152V300.232C329.361 298.248 329.009 296.488 328.305 294.952C327.665 293.352 326.769 292.008 325.617 290.92C324.465 289.832 323.121 289 321.585 288.424C320.049 287.848 318.417 287.56 316.689 287.56C314.961 287.56 313.329 287.848 311.793 288.424C310.257 289 308.913 289.832 307.761 290.92C306.609 292.008 305.681 293.352 304.977 294.952C304.337 296.488 304.017 298.248 304.017 300.232V302.152C304.017 304.136 304.337 305.928 304.977 307.528C305.681 309.064 306.609 310.376 307.761 311.464C308.913 312.552 310.257 313.384 311.793 313.96C313.329 314.536 314.961 314.824 316.689 314.824ZM385.838 277.384H397.934V325H385.838V318.088H384.11C381.998 323.592 377.454 326.344 370.478 326.344C368.11 326.344 365.902 325.96 363.854 325.192C361.806 324.424 360.014 323.24 358.478 321.64C356.942 320.04 355.726 318.056 354.83 315.688C353.998 313.256 353.582 310.408 353.582 307.144V277.384H365.678V304.648C365.678 308.04 366.478 310.696 368.078 312.616C369.678 314.472 372.078 315.4 375.278 315.4C378.926 315.4 381.582 314.248 383.246 311.944C384.974 309.576 385.838 306.376 385.838 302.344V277.384ZM446.539 318.088H444.811C444.299 319.176 443.659 320.232 442.891 321.256C442.187 322.216 441.227 323.08 440.011 323.848C438.859 324.616 437.451 325.224 435.787 325.672C434.187 326.12 432.235 326.344 429.931 326.344C426.987 326.344 424.235 325.832 421.675 324.808C419.179 323.72 416.971 322.152 415.051 320.104C413.195 317.992 411.723 315.432 410.635 312.424C409.611 309.416 409.099 305.96 409.099 302.056V300.328C409.099 296.488 409.643 293.064 410.731 290.056C411.883 287.048 413.419 284.52 415.339 282.472C417.323 280.36 419.595 278.76 422.155 277.672C424.779 276.584 427.531 276.04 430.411 276.04C434.251 276.04 437.291 276.776 439.531 278.248C441.771 279.656 443.531 281.672 444.811 284.296H446.539V257.8H458.635V325H446.539V318.088ZM433.867 314.824C437.643 314.824 440.683 313.64 442.987 311.272C445.355 308.84 446.539 305.672 446.539 301.768V300.616C446.539 296.712 445.355 293.576 442.987 291.208C440.683 288.776 437.643 287.56 433.867 287.56C430.091 287.56 427.019 288.744 424.651 291.112C422.347 293.416 421.195 296.584 421.195 300.616V301.768C421.195 305.8 422.347 309 424.651 311.368C427.019 313.672 430.091 314.824 433.867 314.824ZM552.006 314.824C554.438 314.824 556.422 314.472 557.958 313.768C559.558 313 560.774 312.008 561.606 310.792C562.502 309.512 563.11 308.072 563.43 306.472C563.75 304.808 563.91 303.112 563.91 301.384V299.656H576.582V301.384C576.582 309.384 574.47 315.56 570.246 319.912C566.086 324.2 560.006 326.344 552.006 326.344C544.326 326.344 538.246 324.008 533.766 319.336C529.286 314.664 527.046 307.848 527.046 298.888V283.912C527.046 279.624 527.622 275.784 528.773 272.392C529.926 268.936 531.59 266.056 533.766 263.752C535.942 261.384 538.566 259.592 541.638 258.376C544.71 257.096 548.166 256.456 552.006 256.456C555.974 256.456 559.494 257.032 562.566 258.184C565.638 259.336 568.198 261 570.246 263.176C572.358 265.352 573.926 267.976 574.95 271.048C576.038 274.12 576.582 277.576 576.582 281.416V283.144H563.91V281.416C563.91 279.816 563.718 278.216 563.334 276.616C562.95 275.016 562.31 273.576 561.414 272.296C560.518 271.016 559.302 269.992 557.766 269.224C556.23 268.392 554.31 267.976 552.006 267.976C549.894 267.976 548.07 268.392 546.534 269.224C544.998 269.992 543.718 271.08 542.694 272.488C541.67 273.832 540.902 275.432 540.39 277.288C539.942 279.08 539.718 280.968 539.718 282.952V299.848C539.718 302.024 539.942 304.04 540.39 305.896C540.838 307.688 541.542 309.256 542.502 310.6C543.462 311.944 544.71 313 546.246 313.768C547.846 314.472 549.766 314.824 552.006 314.824ZM635.363 301.768C635.363 305.736 634.691 309.256 633.347 312.328C632.003 315.336 630.179 317.896 627.875 320.008C625.571 322.056 622.915 323.624 619.907 324.712C616.963 325.8 613.859 326.344 610.595 326.344C607.331 326.344 604.195 325.8 601.187 324.712C598.243 323.624 595.619 322.056 593.315 320.008C591.011 317.896 589.187 315.336 587.843 312.328C586.499 309.256 585.827 305.736 585.827 301.768V300.616C585.827 296.712 586.499 293.256 587.843 290.248C589.187 287.176 591.011 284.584 593.315 282.472C595.619 280.36 598.243 278.76 601.187 277.672C604.195 276.584 607.331 276.04 610.595 276.04C613.859 276.04 616.963 276.584 619.907 277.672C622.915 278.76 625.571 280.36 627.875 282.472C630.179 284.584 632.003 287.176 633.347 290.248C634.691 293.256 635.363 296.712 635.363 300.616V301.768ZM610.595 314.824C612.323 314.824 613.955 314.536 615.491 313.96C617.027 313.384 618.371 312.552 619.523 311.464C620.675 310.376 621.571 309.064 622.211 307.528C622.915 305.928 623.267 304.136 623.267 302.152V300.232C623.267 298.248 622.915 296.488 622.211 294.952C621.571 293.352 620.675 292.008 619.523 290.92C618.371 289.832 617.027 289 615.491 288.424C613.955 287.848 612.323 287.56 610.595 287.56C608.867 287.56 607.235 287.848 605.699 288.424C604.163 289 602.819 289.832 601.667 290.92C600.515 292.008 599.587 293.352 598.883 294.952C598.243 296.488 597.923 298.248 597.923 300.232V302.152C597.923 304.136 598.243 305.928 598.883 307.528C599.587 309.064 600.515 310.376 601.667 311.464C602.819 312.552 604.163 313.384 605.699 313.96C607.235 314.536 608.867 314.824 610.595 314.824ZM695.296 325H683.2V291.592C683.2 290.248 682.848 289.256 682.144 288.616C681.504 287.912 680.64 287.56 679.552 287.56C678.272 287.56 677.248 287.944 676.48 288.712C675.776 289.48 675.424 290.632 675.424 292.168V325H663.328V291.592C663.328 290.248 662.944 289.256 662.176 288.616C661.472 287.912 660.608 287.56 659.584 287.56C658.432 287.56 657.472 287.944 656.704 288.712C655.936 289.48 655.552 290.632 655.552 292.168V325H643.456V277.384H655.552V281.992H657.28C657.664 280.264 658.528 278.856 659.872 277.768C661.28 276.616 663.104 276.04 665.344 276.04C667.456 276.04 669.248 276.616 670.72 277.768C672.192 278.856 673.184 280.264 673.696 281.992H675.424C675.936 280.264 676.992 278.856 678.592 277.768C680.256 276.616 682.304 276.04 684.736 276.04C687.936 276.04 690.496 277.128 692.416 279.304C694.336 281.416 695.296 284.36 695.296 288.136V325ZM715.869 344.2H703.773V277.384H715.869V284.296H717.597C718.877 281.672 720.733 279.656 723.165 278.248C725.597 276.776 728.701 276.04 732.477 276.04C735.293 276.04 737.949 276.584 740.445 277.672C743.005 278.76 745.213 280.36 747.069 282.472C748.989 284.52 750.493 287.048 751.581 290.056C752.733 293.064 753.309 296.488 753.309 300.328V302.056C753.309 305.96 752.765 309.416 751.677 312.424C750.589 315.432 749.117 317.992 747.261 320.104C745.405 322.152 743.197 323.72 740.637 324.808C738.141 325.832 735.421 326.344 732.477 326.344C730.301 326.344 728.413 326.12 726.813 325.672C725.213 325.224 723.805 324.616 722.589 323.848C721.437 323.08 720.445 322.216 719.613 321.256C718.845 320.232 718.173 319.176 717.597 318.088H715.869V344.2ZM728.541 314.824C732.317 314.824 735.357 313.672 737.661 311.368C740.029 309 741.213 305.8 741.213 301.768V300.616C741.213 296.584 740.029 293.416 737.661 291.112C735.357 288.744 732.317 287.56 728.541 287.56C724.765 287.56 721.693 288.776 719.325 291.208C717.021 293.576 715.869 296.712 715.869 300.616V301.768C715.869 305.672 717.021 308.84 719.325 311.272C721.693 313.64 724.765 314.824 728.541 314.824ZM797.307 277.384H809.403V325H797.307V318.088H795.579C793.467 323.592 788.923 326.344 781.947 326.344C779.579 326.344 777.371 325.96 775.323 325.192C773.275 324.424 771.483 323.24 769.947 321.64C768.411 320.04 767.195 318.056 766.299 315.688C765.467 313.256 765.051 310.408 765.051 307.144V277.384H777.147V304.648C777.147 308.04 777.947 310.696 779.547 312.616C781.147 314.472 783.547 315.4 786.747 315.4C790.395 315.4 793.051 314.248 794.715 311.944C796.443 309.576 797.307 306.376 797.307 302.344V277.384ZM822.488 277.384H836.6V257.8H848.696V277.384H865.88V288.904H848.696V310.6C848.696 312.52 849.56 313.48 851.288 313.48H864.152V325H843.992C841.816 325 840.024 324.296 838.616 322.888C837.272 321.48 836.6 319.688 836.6 317.512V288.904H822.488V277.384ZM883.477 313.48H899.605V288.904H884.629V277.384H911.701V313.48H925.525V325H883.477V313.48ZM914.677 263.272C914.677 264.552 914.421 265.768 913.909 266.92C913.461 268.008 912.821 268.968 911.989 269.8C911.157 270.568 910.165 271.208 909.013 271.72C907.925 272.168 906.773 272.392 905.557 272.392C904.277 272.392 903.093 272.168 902.005 271.72C900.917 271.208 899.957 270.568 899.125 269.8C898.293 268.968 897.621 268.008 897.109 266.92C896.661 265.768 896.437 264.552 896.437 263.272C896.437 261.992 896.661 260.808 897.109 259.72C897.621 258.568 898.293 257.608 899.125 256.84C899.957 256.008 900.917 255.368 902.005 254.92C903.093 254.408 904.277 254.152 905.557 254.152C906.773 254.152 907.925 254.408 909.013 254.92C910.165 255.368 911.157 256.008 911.989 256.84C912.821 257.608 913.461 258.568 913.909 259.72C914.421 260.808 914.677 261.992 914.677 263.272ZM953.49 325H941.394V277.384H953.49V284.488H955.218C956.306 281.8 958.066 279.72 960.498 278.248C962.93 276.776 965.778 276.04 969.042 276.04C971.346 276.04 973.49 276.424 975.474 277.192C977.522 277.896 979.314 279.016 980.85 280.552C982.386 282.088 983.57 284.04 984.402 286.408C985.298 288.776 985.746 291.592 985.746 294.856V325H973.65V297.928C973.65 294.536 972.818 291.88 971.154 289.96C969.554 287.976 967.218 286.984 964.146 286.984C960.562 286.984 957.874 288.2 956.082 290.632C954.354 293 953.49 296.2 953.49 300.232V325ZM1034.16 318.088H1032.43C1031.92 319.176 1031.28 320.232 1030.51 321.256C1029.81 322.216 1028.85 323.08 1027.63 323.848C1026.48 324.616 1025.07 325.224 1023.41 325.672C1021.81 326.12 1019.86 326.344 1017.55 326.344C1014.61 326.344 1011.86 325.832 1009.3 324.808C1006.8 323.72 1004.59 322.152 1002.67 320.104C1000.82 317.992 999.344 315.432 998.256 312.424C997.232 309.416 996.72 305.96 996.72 302.056V300.328C996.72 296.488 997.264 293.064 998.352 290.056C999.504 287.048 1001.04 284.52 1002.96 282.472C1004.94 280.36 1007.22 278.76 1009.78 277.672C1012.4 276.584 1015.15 276.04 1018.03 276.04C1021.87 276.04 1024.91 276.776 1027.15 278.248C1029.39 279.656 1031.15 281.672 1032.43 284.296H1034.16V277.384H1046.26V336.712C1046.26 338.888 1045.55 340.68 1044.14 342.088C1042.8 343.496 1041.04 344.2 1038.86 344.2H1006.8V332.68H1031.57C1033.3 332.68 1034.16 331.72 1034.16 329.8V318.088ZM1021.49 314.824C1025.26 314.824 1028.3 313.64 1030.61 311.272C1032.98 308.84 1034.16 305.672 1034.16 301.768V300.616C1034.16 296.712 1032.98 293.576 1030.61 291.208C1028.3 288.776 1025.26 287.56 1021.49 287.56C1017.71 287.56 1014.64 288.744 1012.27 291.112C1009.97 293.416 1008.82 296.584 1008.82 300.616V301.768C1008.82 305.8 1009.97 309 1012.27 311.368C1014.64 313.672 1017.71 314.824 1021.49 314.824ZM1071.72 317.224C1071.72 316.008 1071.95 314.856 1072.4 313.768C1072.91 312.616 1073.58 311.656 1074.41 310.888C1075.24 310.056 1076.2 309.416 1077.29 308.968C1078.38 308.456 1079.56 308.2 1080.84 308.2C1082.06 308.2 1083.21 308.456 1084.3 308.968C1085.45 309.416 1086.44 310.056 1087.28 310.888C1088.11 311.656 1088.75 312.616 1089.2 313.768C1089.71 314.856 1089.96 316.008 1089.96 317.224V328.936C1089.96 331.368 1089.13 333.416 1087.47 335.08C1085.87 336.744 1083.85 337.576 1081.42 337.576H1075.28V330.088H1079.88C1081.61 330.088 1082.48 329.128 1082.48 327.208V326.056C1081.96 326.248 1081.42 326.344 1080.84 326.344C1079.56 326.344 1078.38 326.088 1077.29 325.576C1076.2 325.128 1075.24 324.488 1074.41 323.656C1073.58 322.824 1072.91 321.864 1072.4 320.776C1071.95 319.688 1071.72 318.504 1071.72 317.224ZM306.897 441.656V467H294.225V399.8H320.529C323.985 399.8 326.993 400.376 329.553 401.528C332.113 402.616 334.225 404.088 335.889 405.944C337.617 407.736 338.897 409.816 339.729 412.184C340.625 414.488 341.073 416.856 341.073 419.288V421.592C341.073 424.088 340.625 426.552 339.729 428.984C338.897 431.352 337.617 433.496 335.889 435.416C334.225 437.272 332.113 438.776 329.553 439.928C326.993 441.08 323.985 441.656 320.529 441.656H306.897ZM306.897 429.56H319.281C322.097 429.56 324.305 428.792 325.905 427.256C327.569 425.72 328.401 423.736 328.401 421.304V420.152C328.401 417.72 327.569 415.736 325.905 414.2C324.305 412.664 322.097 411.896 319.281 411.896H306.897V429.56ZM364.238 447.128C364.302 448.536 364.622 449.848 365.198 451.064C365.838 452.216 366.67 453.24 367.694 454.136C368.782 454.968 369.998 455.64 371.342 456.152C372.75 456.6 374.222 456.824 375.758 456.824C378.766 456.824 381.07 456.312 382.67 455.288C384.27 454.2 385.422 452.92 386.126 451.448L396.494 457.208C395.918 458.424 395.118 459.704 394.094 461.048C393.07 462.328 391.726 463.512 390.062 464.6C388.462 465.688 386.478 466.584 384.11 467.288C381.806 467.992 379.086 468.344 375.95 468.344C372.366 468.344 369.102 467.768 366.158 466.616C363.214 465.464 360.654 463.8 358.478 461.624C356.366 459.448 354.702 456.792 353.486 453.656C352.334 450.52 351.758 446.968 351.758 443V442.424C351.758 438.776 352.366 435.448 353.582 432.44C354.862 429.432 356.59 426.872 358.766 424.76C360.942 422.648 363.47 421.016 366.35 419.864C369.294 418.648 372.43 418.04 375.758 418.04C379.854 418.04 383.374 418.776 386.318 420.248C389.262 421.656 391.694 423.48 393.614 425.72C395.534 427.896 396.942 430.328 397.838 433.016C398.734 435.64 399.182 438.2 399.182 440.696V447.128H364.238ZM375.662 428.984C372.59 428.984 370.094 429.784 368.174 431.384C366.254 432.92 365.006 434.712 364.43 436.76H386.894C386.51 434.52 385.294 432.664 383.246 431.192C381.262 429.72 378.734 428.984 375.662 428.984ZM410.059 419.384H430.219V426.296H431.947C432.843 423.672 434.347 421.656 436.459 420.248C438.635 418.776 441.227 418.04 444.235 418.04C448.971 418.04 452.779 419.544 455.659 422.552C458.539 425.496 459.979 430.008 459.979 436.088V438.2L447.499 439.352V438.008C447.499 435.384 446.827 433.304 445.483 431.768C444.139 430.168 442.123 429.368 439.435 429.368C436.747 429.368 434.635 430.296 433.099 432.152C431.563 434.008 430.795 436.664 430.795 440.12V455.48H441.739V467H408.907V455.48H418.699V430.904H410.059V419.384ZM486.312 432.824C486.312 434.36 487.112 435.48 488.712 436.184C490.312 436.824 493.224 437.368 497.448 437.816C502.312 438.328 506.28 439.8 509.352 442.232C512.424 444.6 513.96 447.928 513.96 452.216V452.792C513.96 457.528 512.232 461.304 508.776 464.12C505.32 466.936 500.456 468.344 494.184 468.344C490.472 468.344 487.304 467.864 484.68 466.904C482.056 465.944 479.88 464.76 478.152 463.352C476.424 461.88 475.08 460.28 474.12 458.552C473.224 456.76 472.616 455.032 472.296 453.368L483.432 449.72C483.944 451.768 485 453.56 486.6 455.096C488.264 456.632 490.792 457.4 494.184 457.4C497.192 457.4 499.24 456.952 500.328 456.056C501.48 455.096 502.056 454.072 502.056 452.984C502.056 452.344 501.896 451.768 501.576 451.256C501.32 450.68 500.808 450.168 500.04 449.72C499.272 449.208 498.216 448.792 496.872 448.472C495.592 448.152 493.96 447.896 491.976 447.704C486.6 447.256 482.312 445.88 479.112 443.576C475.976 441.208 474.408 437.752 474.408 433.208V432.632C474.408 430.264 474.92 428.184 475.944 426.392C476.968 424.6 478.312 423.096 479.976 421.88C481.64 420.6 483.56 419.64 485.736 419C487.912 418.36 490.152 418.04 492.456 418.04C495.464 418.04 498.056 418.424 500.232 419.192C502.472 419.896 504.36 420.856 505.896 422.072C507.432 423.224 508.68 424.536 509.64 426.008C510.6 427.416 511.336 428.792 511.848 430.136L500.904 434.552C500.328 432.824 499.336 431.48 497.928 430.52C496.52 429.496 494.696 428.984 492.456 428.984C490.408 428.984 488.872 429.368 487.848 430.136C486.824 430.84 486.312 431.736 486.312 432.824ZM576.582 443.768C576.582 447.736 575.91 451.256 574.566 454.328C573.222 457.336 571.398 459.896 569.094 462.008C566.79 464.056 564.134 465.624 561.126 466.712C558.182 467.8 555.078 468.344 551.814 468.344C548.55 468.344 545.414 467.8 542.406 466.712C539.462 465.624 536.838 464.056 534.534 462.008C532.23 459.896 530.406 457.336 529.062 454.328C527.718 451.256 527.046 447.736 527.046 443.768V442.616C527.046 438.712 527.718 435.256 529.062 432.248C530.406 429.176 532.23 426.584 534.534 424.472C536.838 422.36 539.462 420.76 542.406 419.672C545.414 418.584 548.55 418.04 551.814 418.04C555.078 418.04 558.182 418.584 561.126 419.672C564.134 420.76 566.79 422.36 569.094 424.472C571.398 426.584 573.222 429.176 574.566 432.248C575.91 435.256 576.582 438.712 576.582 442.616V443.768ZM551.814 456.824C553.542 456.824 555.174 456.536 556.71 455.96C558.246 455.384 559.59 454.552 560.742 453.464C561.894 452.376 562.79 451.064 563.43 449.528C564.134 447.928 564.486 446.136 564.486 444.152V442.232C564.486 440.248 564.134 438.488 563.43 436.952C562.79 435.352 561.894 434.008 560.742 432.92C559.59 431.832 558.246 431 556.71 430.424C555.174 429.848 553.542 429.56 551.814 429.56C550.086 429.56 548.454 429.848 546.918 430.424C545.382 431 544.038 431.832 542.886 432.92C541.734 434.008 540.806 435.352 540.102 436.952C539.462 438.488 539.142 440.248 539.142 442.232V444.152C539.142 446.136 539.462 447.928 540.102 449.528C540.806 451.064 541.734 452.376 542.886 453.464C544.038 454.552 545.382 455.384 546.918 455.96C548.454 456.536 550.086 456.824 551.814 456.824ZM600.803 467H588.707V419.384H600.803V426.488H602.531C603.619 423.8 605.379 421.72 607.811 420.248C610.243 418.776 613.091 418.04 616.355 418.04C618.659 418.04 620.803 418.424 622.787 419.192C624.835 419.896 626.627 421.016 628.163 422.552C629.699 424.088 630.883 426.04 631.715 428.408C632.611 430.776 633.059 433.592 633.059 436.856V467H620.963V439.928C620.963 436.536 620.131 433.88 618.467 431.96C616.867 429.976 614.531 428.984 611.459 428.984C607.875 428.984 605.187 430.2 603.395 432.632C601.667 435 600.803 438.2 600.803 442.232V467ZM678.304 460.088C677.024 463.096 675.232 465.24 672.928 466.52C670.624 467.736 667.936 468.344 664.864 468.344C661.984 468.344 659.264 467.8 656.704 466.712C654.208 465.624 652 464.024 650.08 461.912C648.16 459.8 646.624 457.24 645.472 454.232C644.384 451.224 643.84 447.8 643.84 443.96V442.424C643.84 438.648 644.384 435.256 645.472 432.248C646.56 429.24 648.032 426.68 649.888 424.568C651.744 422.456 653.888 420.856 656.32 419.768C658.816 418.616 661.472 418.04 664.288 418.04C667.68 418.04 670.4 418.616 672.448 419.768C674.56 420.92 676.224 422.712 677.44 425.144H679.168V419.384H691.264V452.6C691.264 454.52 692.128 455.48 693.856 455.48H695.68V467H687.424C685.248 467 683.456 466.36 682.048 465.08C680.704 463.8 680.032 462.136 680.032 460.088H678.304ZM667.552 456.824C671.072 456.824 673.888 455.672 676 453.368C678.112 451 679.168 447.8 679.168 443.768V442.616C679.168 438.584 678.112 435.416 676 433.112C673.888 430.744 671.072 429.56 667.552 429.56C664.032 429.56 661.216 430.744 659.104 433.112C656.992 435.416 655.936 438.584 655.936 442.616V443.768C655.936 447.8 656.992 451 659.104 453.368C661.216 455.672 664.032 456.824 667.552 456.824ZM705.981 455.48H722.685V411.32H706.557V399.8H734.781V455.48H750.333V467H705.981V455.48ZM765.915 455.48H782.043V430.904H767.067V419.384H794.139V455.48H807.963V467H765.915V455.48ZM797.115 405.272C797.115 406.552 796.859 407.768 796.347 408.92C795.899 410.008 795.259 410.968 794.427 411.8C793.595 412.568 792.603 413.208 791.451 413.72C790.363 414.168 789.211 414.392 787.995 414.392C786.715 414.392 785.531 414.168 784.443 413.72C783.355 413.208 782.395 412.568 781.562 411.8C780.731 410.968 780.059 410.008 779.547 408.92C779.099 407.768 778.875 406.552 778.875 405.272C778.875 403.992 779.099 402.808 779.547 401.72C780.059 400.568 780.731 399.608 781.562 398.84C782.395 398.008 783.355 397.368 784.443 396.92C785.531 396.408 786.715 396.152 787.995 396.152C789.211 396.152 790.363 396.408 791.451 396.92C792.603 397.368 793.595 398.008 794.427 398.84C795.259 399.608 795.899 400.568 796.347 401.72C796.859 402.808 797.115 403.992 797.115 405.272ZM866.552 455.48V467H825.08V446.84L855.032 432.248V430.52H825.656V419.384H865.4V438.968L835.448 453.752V455.48H866.552ZM893.269 447.128C893.333 448.536 893.653 449.848 894.229 451.064C894.869 452.216 895.701 453.24 896.725 454.136C897.813 454.968 899.029 455.64 900.373 456.152C901.781 456.6 903.253 456.824 904.789 456.824C907.797 456.824 910.101 456.312 911.701 455.288C913.301 454.2 914.453 452.92 915.157 451.448L925.525 457.208C924.949 458.424 924.149 459.704 923.125 461.048C922.101 462.328 920.757 463.512 919.093 464.6C917.493 465.688 915.509 466.584 913.141 467.288C910.837 467.992 908.117 468.344 904.981 468.344C901.397 468.344 898.133 467.768 895.189 466.616C892.245 465.464 889.685 463.8 887.509 461.624C885.397 459.448 883.733 456.792 882.517 453.656C881.365 450.52 880.789 446.968 880.789 443V442.424C880.789 438.776 881.397 435.448 882.613 432.44C883.893 429.432 885.621 426.872 887.797 424.76C889.973 422.648 892.501 421.016 895.381 419.864C898.325 418.648 901.461 418.04 904.789 418.04C908.885 418.04 912.405 418.776 915.349 420.248C918.293 421.656 920.725 423.48 922.645 425.72C924.565 427.896 925.973 430.328 926.869 433.016C927.765 435.64 928.213 438.2 928.213 440.696V447.128H893.269ZM904.693 428.984C901.621 428.984 899.125 429.784 897.205 431.384C895.285 432.92 894.037 434.712 893.461 436.76H915.925C915.541 434.52 914.325 432.664 912.277 431.192C910.293 429.72 907.765 428.984 904.693 428.984ZM975.57 460.088H973.842C973.33 461.176 972.69 462.232 971.922 463.256C971.218 464.216 970.258 465.08 969.042 465.848C967.89 466.616 966.482 467.224 964.818 467.672C963.218 468.12 961.266 468.344 958.962 468.344C956.018 468.344 953.266 467.832 950.706 466.808C948.21 465.72 946.002 464.152 944.082 462.104C942.226 459.992 940.754 457.432 939.666 454.424C938.642 451.416 938.13 447.96 938.13 444.056V442.328C938.13 438.488 938.674 435.064 939.762 432.056C940.914 429.048 942.45 426.52 944.37 424.472C946.354 422.36 948.626 420.76 951.186 419.672C953.81 418.584 956.562 418.04 959.442 418.04C963.282 418.04 966.322 418.776 968.562 420.248C970.802 421.656 972.562 423.672 973.842 426.296H975.57V399.8H987.666V467H975.57V460.088ZM962.898 456.824C966.674 456.824 969.714 455.64 972.018 453.272C974.386 450.84 975.57 447.672 975.57 443.768V442.616C975.57 438.712 974.386 435.576 972.018 433.208C969.714 430.776 966.674 429.56 962.898 429.56C959.122 429.56 956.05 430.744 953.682 433.112C951.378 435.416 950.226 438.584 950.226 442.616V443.768C950.226 447.8 951.378 451 953.682 453.368C956.05 455.672 959.122 456.824 962.898 456.824Z" fill="white"/>
</g>
</g>
<defs>
<filter id="filter0_d" x="174.358" y="254.152" width="923.607" height="222.192" filterUnits="userSpaceOnUse" color-interpolation-filters="sRGB">
<feFlood flood-opacity="0" result="BackgroundImageFix"/>
<feColorMatrix in="SourceAlpha" type="matrix" values="0 0 0 0 0 0 0 0 0 0 0 0 0 0 0 0 0 0 127 0"/>
<feOffset dx="8" dy="8"/>
<feColorMatrix type="matrix" values="0 0 0 0 0 0 0 0 0 0 0 0 0 0 0 0 0 0 0.25 0"/>
<feBlend mode="normal" in2="BackgroundImageFix" result="effect1_dropShadow"/>
<feBlend mode="normal" in="SourceGraphic" in2="effect1_dropShadow" result="shape"/>
</filter>
<linearGradient id="paint0_linear" x1="640" y1="0" x2="640" y2="720" gradientUnits="userSpaceOnUse">
<stop stop-color="#003FAC"/>
<stop offset="1" stop-color="#0099FF"/>
</linearGradient>
<clipPath id="clip0">
<rect width="1280" height="720" rx="3" fill="white"/>
</clipPath>
</defs>
</svg>
