<svg width="2265" height="376" viewBox="0 0 2265 376" fill="none" xmlns="http://www.w3.org/2000/svg">
<path d="M262.95 119H308.404C294.91 48.6875 235.961 0.392032 159.256 0.392032C66.0391 0.392032 0.165484 72.125 0.165484 187.182C0.165484 302.239 65.5064 373.972 162.097 373.972C248.745 373.972 310.535 316.266 310.535 226.244V187.182H172.04V226.244H267.921C266.678 291.585 223.71 332.778 162.097 332.778C94.6257 332.778 42.7791 281.642 42.7791 187.182C42.7791 92.7216 94.6257 41.5852 159.256 41.5852C211.813 41.5852 247.502 71.2372 262.95 119ZM435.526 375.392C483.111 375.392 507.969 349.824 516.492 332.068H518.623V369H560.526V189.312C560.526 102.665 494.475 92.7216 459.674 92.7216C418.48 92.7216 371.605 106.926 350.299 156.642L390.071 170.847C399.304 150.96 421.144 129.653 461.094 129.653C499.624 129.653 518.623 150.072 518.623 185.051V186.472C518.623 206.713 498.026 204.938 448.31 211.33C397.706 217.899 342.486 229.085 342.486 291.585C342.486 344.852 383.679 375.392 435.526 375.392ZM441.918 337.75C408.537 337.75 384.39 322.835 384.39 293.716C384.39 261.756 413.509 251.812 446.179 247.551C463.935 245.42 511.52 240.449 518.623 231.926V270.278C518.623 304.369 491.634 337.75 441.918 337.75ZM612.009 369H653.912V198.545C653.912 158.595 683.031 130.364 715.702 130.364C747.484 130.364 769.679 151.138 769.679 182.21V369H812.293V191.443C812.293 156.287 834.31 130.364 872.662 130.364C902.491 130.364 928.06 146.166 928.06 186.472V369H969.963V186.472C969.963 122.374 935.517 92.7216 886.866 92.7216C847.804 92.7216 819.217 110.655 805.19 138.886H802.349C788.855 109.767 765.062 92.7216 729.196 92.7216C693.685 92.7216 667.406 109.767 656.043 138.886H652.491V96.2727H612.009V369ZM1135.93 374.682C1191.32 374.682 1231.81 346.983 1244.59 305.79L1204.11 294.426C1193.45 322.835 1168.77 337.04 1135.93 337.04C1086.74 337.04 1052.83 305.257 1050.88 246.841H1248.85V229.085C1248.85 127.523 1188.48 92.7216 1131.66 92.7216C1057.8 92.7216 1008.79 150.96 1008.79 234.767C1008.79 318.574 1057.09 374.682 1135.93 374.682ZM1050.88 210.619C1053.72 168.183 1083.72 130.364 1131.66 130.364C1177.12 130.364 1206.24 164.455 1206.24 210.619H1050.88ZM1293.28 369H1337.31V206.358H1494.98V167.295H1337.31V44.4261H1511.32V5.36363H1293.28V369ZM1597.95 5.36363H1556.05V369H1597.95V5.36363ZM1760.5 374.682C1834.36 374.682 1884.08 318.574 1884.08 234.057C1884.08 148.83 1834.36 92.7216 1760.5 92.7216C1686.64 92.7216 1636.92 148.83 1636.92 234.057C1636.92 318.574 1686.64 374.682 1760.5 374.682ZM1760.5 337.04C1704.39 337.04 1678.82 288.744 1678.82 234.057C1678.82 179.369 1704.39 130.364 1760.5 130.364C1816.61 130.364 1842.18 179.369 1842.18 234.057C1842.18 288.744 1816.61 337.04 1760.5 337.04ZM1975.56 369H2016.75L2076.41 159.483H2080.67L2140.33 369H2181.52L2264.62 96.2727H2220.58L2161.64 304.369H2158.79L2101.27 96.2727H2056.52L1998.28 305.08H1995.44L1936.49 96.2727H1892.46L1975.56 369Z" fill="black"/>
</svg>
