<svg width="1133" height="189" viewBox="0 0 1133 189" fill="none" xmlns="http://www.w3.org/2000/svg">
<path d="M131.475 60H154.202C147.455 24.8438 117.98 0.696016 79.6282 0.696016C33.0195 0.696016 0.0827422 36.5625 0.0827422 94.0909C0.0827422 151.619 32.7532 187.486 81.0487 187.486C124.373 187.486 155.267 158.633 155.267 113.622V94.0909H86.0202V113.622H133.961C133.339 146.293 111.855 166.889 81.0487 166.889C47.3129 166.889 21.3896 141.321 21.3896 94.0909C21.3896 46.8608 47.3129 21.2926 79.6282 21.2926C105.907 21.2926 123.751 36.1186 131.475 60ZM217.763 188.196C241.556 188.196 253.985 175.412 258.246 166.534H259.311V185H280.263V95.1562C280.263 51.8324 247.237 46.8608 229.837 46.8608C209.24 46.8608 185.803 53.9631 175.149 78.821L195.036 85.9233C199.652 75.9801 210.572 65.3267 230.547 65.3267C249.812 65.3267 259.311 75.5362 259.311 93.0256V93.7358C259.311 103.857 249.013 102.969 224.155 106.165C198.853 109.45 171.243 115.043 171.243 146.293C171.243 172.926 191.84 188.196 217.763 188.196ZM220.959 169.375C204.269 169.375 192.195 161.918 192.195 147.358C192.195 131.378 206.754 126.406 223.09 124.276C231.968 123.21 255.76 120.724 259.311 116.463V135.639C259.311 152.685 245.817 169.375 220.959 169.375ZM306.004 185H326.956V99.7727C326.956 79.7976 341.516 65.6818 357.851 65.6818C373.742 65.6818 384.839 76.0689 384.839 91.6051V185H406.146V96.2216C406.146 78.6435 417.155 65.6818 436.331 65.6818C451.246 65.6818 464.03 73.5831 464.03 93.7358V185H484.982V93.7358C484.982 61.6868 467.759 46.8608 443.433 46.8608C423.902 46.8608 409.609 55.8274 402.595 69.9432H401.175C394.428 55.3835 382.531 46.8608 364.598 46.8608C346.842 46.8608 333.703 55.3835 328.021 69.9432H326.246V48.6364H306.004V185ZM567.963 187.841C595.662 187.841 615.903 173.991 622.295 153.395L602.054 147.713C596.727 161.918 584.387 169.02 567.963 169.02C543.371 169.02 526.414 153.129 525.438 123.92H624.426V115.043C624.426 64.2614 594.241 46.8608 565.832 46.8608C528.9 46.8608 504.397 75.9801 504.397 117.884C504.397 159.787 528.545 187.841 567.963 187.841ZM525.438 105.81C526.858 84.5916 541.862 65.6818 565.832 65.6818C588.559 65.6818 603.119 82.7273 603.119 105.81H525.438ZM646.638 185H668.655V103.679H747.49V84.1477H668.655V22.7131H755.658V3.18181H646.638V185ZM798.977 3.18181H778.026V185H798.977V3.18181ZM880.25 187.841C917.181 187.841 942.039 159.787 942.039 117.528C942.039 74.9148 917.181 46.8608 880.25 46.8608C843.318 46.8608 818.46 74.9148 818.46 117.528C818.46 159.787 843.318 187.841 880.25 187.841ZM880.25 169.02C852.196 169.02 839.412 144.872 839.412 117.528C839.412 90.1847 852.196 65.6818 880.25 65.6818C908.304 65.6818 921.088 90.1847 921.088 117.528C921.088 144.872 908.304 169.02 880.25 169.02ZM987.778 185H1008.37L1038.2 80.2415H1040.33L1070.16 185H1090.76L1132.31 48.6364H1110.29L1080.82 152.685H1079.4L1050.63 48.6364H1028.26L999.142 153.04H997.721L968.247 48.6364H946.23L987.778 185Z" fill="black"/>
</svg>
