<svg width="2990" height="500" viewBox="0 0 2990 500" fill="none" xmlns="http://www.w3.org/2000/svg">
<path d="M858.176 185.906H936.301C926.358 113.996 862.971 63.392 780.762 63.392C684.703 63.392 610.662 132.639 610.662 250.537C610.662 365.594 679.909 436.972 782.36 436.972C874.157 436.972 939.675 378.911 939.675 283.207V237.398H787.509V295.281H865.634C864.569 340.381 833.851 368.967 782.715 368.967C725.009 368.967 688.61 325.821 688.61 249.827C688.61 174.188 726.429 131.396 782.005 131.396C821.6 131.396 848.411 151.815 858.176 185.906ZM1048.77 437.149C1089.08 437.149 1115.18 419.571 1128.5 394.18H1130.63V432H1202.36V248.051C1202.36 183.065 1147.32 155.722 1086.59 155.722C1021.25 155.722 978.285 186.972 967.809 236.688L1037.77 242.369C1042.92 224.259 1059.07 210.942 1086.24 210.942C1111.99 210.942 1126.72 223.903 1126.72 246.276V247.341C1126.72 264.919 1108.08 267.227 1060.67 271.844C1006.69 276.815 958.221 294.926 958.221 355.828C958.221 409.805 996.751 437.149 1048.77 437.149ZM1070.44 384.947C1047.18 384.947 1030.49 374.116 1030.49 353.342C1030.49 332.036 1048.06 321.56 1074.7 317.831C1091.21 315.523 1118.2 311.616 1127.25 305.58V334.521C1127.25 363.108 1103.64 384.947 1070.44 384.947ZM1236.04 432H1311.68V268.293C1311.68 238.108 1330.86 218.044 1356.07 218.044C1380.93 218.044 1397.62 235.089 1397.62 261.901V432H1470.95V265.452C1470.95 237.22 1487.11 218.044 1514.63 218.044C1538.78 218.044 1556.89 233.136 1556.89 263.499V432H1632.35V248.584C1632.35 189.457 1597.19 155.722 1546.41 155.722C1506.46 155.722 1475.39 176.141 1464.2 207.391H1461.36C1452.66 175.786 1424.79 155.722 1387.32 155.722C1350.57 155.722 1322.69 175.253 1311.33 207.391H1308.13V159.273H1236.04V432ZM1791.39 437.327C1858.86 437.327 1904.31 404.479 1914.97 353.875L1845.01 349.259C1837.38 370.033 1817.84 380.864 1792.63 380.864C1754.81 380.864 1730.84 355.828 1730.84 315.168V314.99H1916.57V294.216C1916.57 201.531 1860.46 155.722 1788.37 155.722C1708.11 155.722 1656.09 212.717 1656.09 296.879C1656.09 383.349 1707.4 437.327 1791.39 437.327ZM1730.84 268.115C1732.44 237.043 1756.05 212.185 1789.61 212.185C1822.46 212.185 1845.19 235.622 1845.37 268.115H1730.84ZM1942.35 432H2019.23V281.787H2167.13V218.399H2019.23V131.751H2183.11V68.3636H1942.35V432ZM2284.05 68.3636H2208.41V432H2284.05V68.3636ZM2442.86 437.327C2525.6 437.327 2577.1 380.686 2577.1 296.702C2577.1 212.185 2525.6 155.722 2442.86 155.722C2360.12 155.722 2308.63 212.185 2308.63 296.702C2308.63 380.686 2360.12 437.327 2442.86 437.327ZM2443.22 378.733C2405.04 378.733 2385.51 343.754 2385.51 296.169C2385.51 248.584 2405.04 213.428 2443.22 213.428C2480.68 213.428 2500.21 248.584 2500.21 296.169C2500.21 343.754 2480.68 378.733 2443.22 378.733ZM2648.24 432H2728.14L2775.02 260.48H2778.39L2825.27 432H2905.34L2979.39 159.273H2903.04L2861.49 341.446H2859.18L2814.44 159.273H2739.33L2695.29 342.511H2692.81L2650.55 159.273H2574.02L2648.24 432Z" fill="white"/>
<path d="M54.5213 76.8934L304.531 0L359.208 49.4662L117.436 126.312L80.5679 298.335L214.747 416.395L385.79 360.828L419.507 212.909L269.841 260.325L213.518 210.868L458.584 134.003L500 170.699L445.48 421.501L195.48 500L0 327.696L54.5213 76.8934Z" fill="white"/>
</svg>
