<svg width="2995" height="605" viewBox="0 0 2995 605" fill="none" xmlns="http://www.w3.org/2000/svg">
<path d="M975.95 182H1021.4C1007.91 111.688 948.961 63.392 872.256 63.392C779.039 63.392 713.165 135.125 713.165 250.182C713.165 365.239 778.506 436.972 875.097 436.972C961.745 436.972 1023.53 379.266 1023.53 289.244V250.182H885.04V289.244H980.921C979.678 354.585 936.71 395.778 875.097 395.778C807.626 395.778 755.779 344.642 755.779 250.182C755.779 155.722 807.626 104.585 872.256 104.585C924.813 104.585 960.502 134.237 975.95 182ZM1148.53 438.392C1196.11 438.392 1220.97 412.824 1229.49 395.068H1231.62V432H1273.53V252.312C1273.53 165.665 1207.47 155.722 1172.67 155.722C1131.48 155.722 1084.61 169.926 1063.3 219.642L1103.07 233.847C1112.3 213.96 1134.14 192.653 1174.09 192.653C1212.62 192.653 1231.62 213.072 1231.62 248.051V249.472C1231.62 269.713 1211.03 267.938 1161.31 274.33C1110.71 280.899 1055.49 292.085 1055.49 354.585C1055.49 407.852 1096.68 438.392 1148.53 438.392ZM1154.92 400.75C1121.54 400.75 1097.39 385.835 1097.39 356.716C1097.39 324.756 1126.51 314.812 1159.18 310.551C1176.94 308.42 1224.52 303.449 1231.62 294.926V333.278C1231.62 367.369 1204.63 400.75 1154.92 400.75ZM1325.01 432H1366.91V261.545C1366.91 221.595 1396.03 193.364 1428.7 193.364C1460.48 193.364 1482.68 214.138 1482.68 245.21V432H1525.29V254.443C1525.29 219.287 1547.31 193.364 1585.66 193.364C1615.49 193.364 1641.06 209.166 1641.06 249.472V432H1682.96V249.472C1682.96 185.374 1648.52 155.722 1599.87 155.722C1560.8 155.722 1532.22 173.655 1518.19 201.886H1515.35C1501.86 172.767 1478.06 155.722 1442.2 155.722C1406.68 155.722 1380.41 172.767 1369.04 201.886H1365.49V159.273H1325.01V432ZM1848.93 437.682C1904.32 437.682 1944.81 409.983 1957.59 368.79L1917.11 357.426C1906.45 385.835 1881.77 400.04 1848.93 400.04C1799.74 400.04 1765.83 368.257 1763.88 309.841H1961.85V292.085C1961.85 190.523 1901.48 155.722 1844.66 155.722C1770.8 155.722 1721.79 213.96 1721.79 297.767C1721.79 381.574 1770.09 437.682 1848.93 437.682ZM1763.88 273.619C1766.72 231.183 1796.72 193.364 1844.66 193.364C1890.12 193.364 1919.24 227.455 1919.24 273.619H1763.88ZM2006.28 432H2050.31V269.358H2207.98V230.295H2050.31V107.426H2224.32V68.3636H2006.28V432ZM2310.95 68.3636H2269.05V432H2310.95V68.3636ZM2473.5 437.682C2547.36 437.682 2597.08 381.574 2597.08 297.057C2597.08 211.83 2547.36 155.722 2473.5 155.722C2399.64 155.722 2349.92 211.83 2349.92 297.057C2349.92 381.574 2399.64 437.682 2473.5 437.682ZM2473.5 400.04C2417.39 400.04 2391.82 351.744 2391.82 297.057C2391.82 242.369 2417.39 193.364 2473.5 193.364C2529.61 193.364 2555.18 242.369 2555.18 297.057C2555.18 351.744 2529.61 400.04 2473.5 400.04ZM2688.56 432H2729.75L2789.41 222.483H2793.67L2853.33 432H2894.52L2977.62 159.273H2933.58L2874.64 367.369H2871.79L2814.27 159.273H2769.52L2711.28 368.08H2708.44L2649.49 159.273H2605.46L2688.56 432Z" fill="black"/>
<path d="M54.5213 76.8934L304.531 0L359.208 49.4662L117.436 126.312L80.5679 298.335L214.747 416.395L385.79 360.828L419.507 212.909L269.841 260.325L213.518 210.868L458.584 134.003L500 170.699L445.48 421.501L195.48 500L0 327.696L54.5213 76.8934Z" fill="black"/>
</svg>
